<?xml version="1.0" encoding="UTF-8" standalone="no"?>
<!-- Created with Inkscape (http://www.inkscape.org/) -->

<svg
   xmlns:dc="http://purl.org/dc/elements/1.1/"
   xmlns:cc="http://creativecommons.org/ns#"
   xmlns:rdf="http://www.w3.org/1999/02/22-rdf-syntax-ns#"
   xmlns:svg="http://www.w3.org/2000/svg"
   xmlns="http://www.w3.org/2000/svg"
   xmlns:sodipodi="http://sodipodi.sourceforge.net/DTD/sodipodi-0.dtd"
   xmlns:inkscape="http://www.inkscape.org/namespaces/inkscape"
   width="128mm"
   height="128mm"
   viewBox="0 0 128 128"
   version="1.1"
   id="svg8"
   inkscape:version="0.92.2 (5c3e80d, 2017-08-06)"
   sodipodi:docname="configure.svg">
  <defs
     id="defs2" />
  <sodipodi:namedview
     id="base"
     pagecolor="#ffffff"
     bordercolor="#666666"
     borderopacity="1.0"
     inkscape:pageopacity="0.0"
     inkscape:pageshadow="2"
     inkscape:zoom="0.35"
     inkscape:cx="241.52461"
     inkscape:cy="559.30769"
     inkscape:document-units="mm"
     inkscape:current-layer="layer1"
     showgrid="false"
     inkscape:window-width="1920"
     inkscape:window-height="1027"
     inkscape:window-x="1912"
     inkscape:window-y="-8"
     inkscape:window-maximized="1" />
  <metadata
     id="metadata5">
    <rdf:RDF>
      <cc:Work
         rdf:about="">
        <dc:format>image/svg+xml</dc:format>
        <dc:type
           rdf:resource="http://purl.org/dc/dcmitype/StillImage" />
        <dc:title></dc:title>
      </cc:Work>
    </rdf:RDF>
  </metadata>
  <g
     inkscape:label="Ebene 1"
     inkscape:groupmode="layer"
     id="layer1"
     transform="translate(0,-169)">
    <rect
       style="fill:#919dab;fill-opacity:1;stroke-width:0.29627156"
       id="rect834"
       width="27.428572"
       height="41.142857"
       x="50.285713"
       y="169"
       rx="9.1428576"
       ry="9.1428576" />
    <rect
       style="fill:#919dab;fill-opacity:1;stroke-width:0.29627156"
       id="rect834-4"
       width="27.428572"
       height="41.142857"
       x="50.285713"
       y="255.85715"
       rx="9.1428633"
       ry="9.1428576" />
    <rect
       style="fill:#919dab;fill-opacity:1;stroke-width:0.29627156"
       id="rect834-7"
       width="27.428572"
       height="41.142857"
       x="219.28572"
       y="-41.142857"
       rx="9.1428633"
       ry="9.1428576"
       transform="rotate(90)" />
    <rect
       style="fill:#919dab;fill-opacity:1;stroke-width:0.29627156"
       id="rect834-4-3"
       width="27.428572"
       height="41.142857"
       x="219.28572"
       y="-128"
       rx="9.1428652"
       ry="9.1428576"
       transform="rotate(90)" />
    <rect
       style="fill:#919dab;fill-opacity:1;stroke-width:0.29627159"
       id="rect834-5"
       width="27.428572"
       height="41.142857"
       x="196.29643"
       y="55.76495"
       rx="9.1428566"
       ry="9.1428566"
       transform="rotate(45)" />
    <rect
       style="fill:#919dab;fill-opacity:1;stroke-width:0.29627159"
       id="rect834-5-8"
       width="27.428572"
       height="41.142857"
       x="196.29643"
       y="142.39565"
       rx="9.1428566"
       ry="9.1428566"
       transform="rotate(45)" />
    <rect
       style="fill:#919dab;fill-opacity:1;stroke-width:0.29627159"
       id="rect834-5-8-8"
       width="27.428572"
       height="41.142857"
       x="105.93743"
       y="-187.2668"
       rx="9.1428566"
       ry="9.1428566"
       transform="rotate(135)" />
    <rect
       style="fill:#919dab;fill-opacity:1;stroke-width:0.29627159"
       id="rect834-5-8-8-3"
       width="27.428572"
       height="41.142857"
       x="105.93743"
       y="-273.89749"
       rx="9.1428566"
       ry="9.1428566"
       transform="rotate(135)" />
    <path
       style="fill:#667587;fill-opacity:1;stroke-width:0.21974555"
       d="M 64.000002,188 A 44.99996,44.999959 0 0 0 19,233 44.99996,44.999959 0 0 0 64.000002,278 44.99996,44.999959 0 0 0 109,233 44.99996,44.999959 0 0 0 64.000002,188 Z m 0,27.00018 A 17.999984,17.999984 0 0 1 81.999819,233 17.999984,17.999984 0 0 1 64.000002,251.00028 17.999984,17.999984 0 0 1 46.000188,233 17.999984,17.999984 0 0 1 64.000002,215.00018 Z"
       id="path815"
       inkscape:connector-curvature="0" />
  </g>
</svg>
