<?xml version="1.0" encoding="UTF-8" standalone="no"?>
<!-- Created with Inkscape (http://www.inkscape.org/) -->

<svg
   xmlns:dc="http://purl.org/dc/elements/1.1/"
   xmlns:cc="http://creativecommons.org/ns#"
   xmlns:rdf="http://www.w3.org/1999/02/22-rdf-syntax-ns#"
   xmlns:svg="http://www.w3.org/2000/svg"
   xmlns="http://www.w3.org/2000/svg"
   xmlns:sodipodi="http://sodipodi.sourceforge.net/DTD/sodipodi-0.dtd"
   xmlns:inkscape="http://www.inkscape.org/namespaces/inkscape"
   width="128mm"
   height="128mm"
   viewBox="0 0 128 128"
   version="1.1"
   id="svg831"
   inkscape:version="0.92.2 (5c3e80d, 2017-08-06)"
   sodipodi:docname="edit-redo.svg">
  <defs
     id="defs825" />
  <sodipodi:namedview
     id="base"
     pagecolor="#ffffff"
     bordercolor="#666666"
     borderopacity="1.0"
     inkscape:pageopacity="0.0"
     inkscape:pageshadow="2"
     inkscape:zoom="0.35"
     inkscape:cx="-848.57142"
     inkscape:cy="560"
     inkscape:document-units="mm"
     inkscape:current-layer="layer1"
     showgrid="false"
     inkscape:window-width="1920"
     inkscape:window-height="1027"
     inkscape:window-x="1912"
     inkscape:window-y="-8"
     inkscape:window-maximized="1" />
  <metadata
     id="metadata828">
    <rdf:RDF>
      <cc:Work
         rdf:about="">
        <dc:format>image/svg+xml</dc:format>
        <dc:type
           rdf:resource="http://purl.org/dc/dcmitype/StillImage" />
        <dc:title></dc:title>
      </cc:Work>
    </rdf:RDF>
  </metadata>
  <g
     inkscape:label="Ebene 1"
     inkscape:groupmode="layer"
     id="layer1"
     transform="translate(0,-169)">
    <path
       inkscape:connector-curvature="0"
       style="fill:#358686;fill-opacity:1;stroke-width:0.16517942"
       d="m 59.647153,169.00188 c 1.4246,-0.0337 2.93842,0.38516 4.11457,1.22639 l 36.794247,26.32171 c 2.09095,1.49524 2.30139,3.7534 0.47181,5.06202 l -36.687197,26.24534 c -1.79089,1.28066 -4.85089,1.1602 -6.94066,-0.24885 v -18.42793 a 33.916694,33.746665 0 0 0 -27.31644,33.09466 33.916694,33.746665 0 0 0 33.91604,33.74602 33.916694,33.746665 0 0 0 33.91699,-33.74504 H 119 A 55.000049,54.724348 0 0 1 63.999523,297 55.000049,54.724348 0 0 1 9,242.2762 55.000049,54.724348 0 0 1 57.399923,188.01612 v -18.53444 c 0.6703,-0.30379 1.44446,-0.46289 2.24723,-0.4798 z"
       id="path10-3-0"
       inkscape:export-xdpi="27.093353"
       inkscape:export-ydpi="27.093353" />
  </g>
</svg>
