<?xml version="1.0" encoding="UTF-8" standalone="no"?>
<!-- Created with Inkscape (http://www.inkscape.org/) -->

<svg
   xmlns:dc="http://purl.org/dc/elements/1.1/"
   xmlns:cc="http://creativecommons.org/ns#"
   xmlns:rdf="http://www.w3.org/1999/02/22-rdf-syntax-ns#"
   xmlns:svg="http://www.w3.org/2000/svg"
   xmlns="http://www.w3.org/2000/svg"
   xmlns:sodipodi="http://sodipodi.sourceforge.net/DTD/sodipodi-0.dtd"
   xmlns:inkscape="http://www.inkscape.org/namespaces/inkscape"
   width="128mm"
   height="128mm"
   viewBox="0 0 128 128"
   version="1.1"
   id="svg836"
   inkscape:version="0.92.2 (5c3e80d, 2017-08-06)"
   sodipodi:docname="edit-cut.svg">
  <defs
     id="defs830" />
  <sodipodi:namedview
     id="base"
     pagecolor="#ffffff"
     bordercolor="#666666"
     borderopacity="1.0"
     inkscape:pageopacity="0.0"
     inkscape:pageshadow="2"
     inkscape:zoom="0.35"
     inkscape:cx="-224.28571"
     inkscape:cy="560"
     inkscape:document-units="mm"
     inkscape:current-layer="layer1"
     showgrid="false"
     inkscape:window-width="1920"
     inkscape:window-height="1027"
     inkscape:window-x="1912"
     inkscape:window-y="-8"
     inkscape:window-maximized="1" />
  <metadata
     id="metadata833">
    <rdf:RDF>
      <cc:Work
         rdf:about="">
        <dc:format>image/svg+xml</dc:format>
        <dc:type
           rdf:resource="http://purl.org/dc/dcmitype/StillImage" />
        <dc:title></dc:title>
      </cc:Work>
    </rdf:RDF>
  </metadata>
  <g
     inkscape:label="Ebene 1"
     inkscape:groupmode="layer"
     id="layer1"
     transform="translate(0,-169)">
    <path
       style="fill:#959595;fill-opacity:1;stroke-width:0.23412983"
       d="m 80.399103,261.77169 c 6.102088,-3.28298 11.172629,-6.0359 11.267829,-6.11757 0.0952,-0.0817 -1.254419,-2.36361 -2.99915,-5.07092 -1.744732,-2.70731 -5.966455,-9.63184 -9.381593,-15.38785 -14.581595,-24.57644 -28.069911,-45.44164 -39.336557,-60.85011 -3.241933,-4.43374 -5.21199,-5.92092 -6.82482,-5.15197 -1.503643,0.71689 -2.76996,4.2583 -3.307945,9.25106 -0.387549,3.59677 -0.34235,8.30184 0.09341,9.72291 0.362387,1.1818 4.295207,10.01299 8.354649,18.76048 4.97761,10.72598 15.465547,31.76024 22.83649,45.80001 4.345969,8.278 7.969546,15.04238 8.052379,15.03193 0.08286,-0.0106 5.14323,-2.70501 11.24531,-5.98797 z"
       id="path4563-0"
       inkscape:connector-curvature="0"
       inkscape:export-xdpi="130"
       inkscape:export-ydpi="130" />
    <path
       style="fill:#777777;fill-opacity:1;stroke-width:0.23412983"
       d="m 47.665837,261.77169 c -6.102076,-3.28298 -11.172578,-6.0359 -11.267778,-6.11757 -0.0952,-0.0817 1.25441,-2.36361 2.999128,-5.07092 1.744718,-2.70731 5.966426,-9.63184 9.381564,-15.38785 14.581593,-24.57644 28.069911,-45.44164 39.336581,-60.85011 3.24196,-4.43374 5.212029,-5.92092 6.824869,-5.15197 1.50364,0.71689 2.76997,4.2583 3.30795,9.25106 0.387562,3.59677 0.34236,8.30184 -0.0934,9.72291 -0.362381,1.1818 -4.295222,10.01299 -8.354692,18.76048 -4.977638,10.72598 -15.465584,31.76024 -22.836526,45.80001 -4.345969,8.278 -7.969544,15.04238 -8.05238,15.03193 -0.08286,-0.0106 -5.143227,-2.70501 -11.245307,-5.98797 z"
       id="path4563"
       inkscape:connector-curvature="0"
       inkscape:export-xdpi="130"
       inkscape:export-ydpi="130" />
    <path
       style="fill:#406d8a;fill-opacity:1;stroke-width:0.24394178"
       d="M 39.584393,250.97009 C 26.795652,250.97009 16.5,261.23476 16.5,273.98502 c 0,12.75026 10.295652,23.01493 23.084393,23.01493 12.788741,0 23.084391,-10.26467 23.084391,-23.01493 0,-12.75026 -10.29565,-23.01493 -23.084391,-23.01493 z m 0,9.20587 c 7.673245,0 13.850731,6.1589 13.850731,13.80906 0,7.65016 -6.177486,13.80906 -13.850731,13.80906 -7.673244,0 -13.85073,-6.1589 -13.85073,-13.80906 0,-7.65016 6.177486,-13.80906 13.85073,-13.80906 z"
       id="rect10"
       inkscape:connector-curvature="0"
       inkscape:export-xdpi="130"
       inkscape:export-ydpi="130" />
    <path
       inkscape:connector-curvature="0"
       style="fill:#406d8a;fill-opacity:1;stroke-width:0.24394178"
       d="m 88.415562,250.97013 c -12.788773,0 -23.084424,10.26467 -23.084424,23.01494 C 65.331138,286.73533 75.626789,297 88.415562,297 101.20435,297 111.5,286.73533 111.5,273.98507 c 0,-12.75027 -10.29565,-23.01494 -23.084438,-23.01494 z m 0,9.20588 c 7.67329,0 13.850788,6.1589 13.850788,13.80906 0,7.65015 -6.177498,13.80906 -13.850788,13.80906 -7.673279,0 -13.850762,-6.15891 -13.850762,-13.80906 0,-7.65016 6.177483,-13.80906 13.850762,-13.80906 z"
       id="rect10-4"
       inkscape:export-xdpi="130"
       inkscape:export-ydpi="130" />
    <ellipse
       style="fill:#404040;fill-opacity:1;stroke-width:0.22452742"
       id="path4595"
       cx="63.629509"
       cy="232.18567"
       inkscape:export-xdpi="130"
       inkscape:export-ydpi="130"
       rx="6.9253111"
       ry="6.9044752" />
  </g>
</svg>
