<?xml version="1.0" encoding="UTF-8" standalone="no"?>
<!-- Created with Inkscape (http://www.inkscape.org/) -->

<svg
   xmlns:dc="http://purl.org/dc/elements/1.1/"
   xmlns:cc="http://creativecommons.org/ns#"
   xmlns:rdf="http://www.w3.org/1999/02/22-rdf-syntax-ns#"
   xmlns:svg="http://www.w3.org/2000/svg"
   xmlns="http://www.w3.org/2000/svg"
   xmlns:sodipodi="http://sodipodi.sourceforge.net/DTD/sodipodi-0.dtd"
   xmlns:inkscape="http://www.inkscape.org/namespaces/inkscape"
   width="128mm"
   height="128mm"
   viewBox="0 0 128 128"
   version="1.1"
   id="svg837"
   inkscape:version="0.92.2 (5c3e80d, 2017-08-06)"
   sodipodi:docname="zoom-in.svg">
  <defs
     id="defs831" />
  <sodipodi:namedview
     id="base"
     pagecolor="#ffffff"
     bordercolor="#666666"
     borderopacity="1.0"
     inkscape:pageopacity="0.0"
     inkscape:pageshadow="2"
     inkscape:zoom="0.35"
     inkscape:cx="-224.28571"
     inkscape:cy="560"
     inkscape:document-units="mm"
     inkscape:current-layer="layer1"
     showgrid="false"
     inkscape:window-width="1920"
     inkscape:window-height="1027"
     inkscape:window-x="1912"
     inkscape:window-y="-8"
     inkscape:window-maximized="1" />
  <metadata
     id="metadata834">
    <rdf:RDF>
      <cc:Work
         rdf:about="">
        <dc:format>image/svg+xml</dc:format>
        <dc:type
           rdf:resource="http://purl.org/dc/dcmitype/StillImage" />
        <dc:title></dc:title>
      </cc:Work>
    </rdf:RDF>
  </metadata>
  <g
     inkscape:label="Ebene 1"
     inkscape:groupmode="layer"
     id="layer1"
     transform="translate(0,-169)">
    <rect
       style="fill:#a9b0b2;fill-opacity:1;stroke-width:0.21464305"
       id="rect832"
       width="24.18807"
       height="96.752281"
       x="-131.72583"
       y="197.3813"
       rx="9.6752281"
       ry="9.6752281"
       transform="matrix(0.70741429,-0.70679914,0.70741429,0.70679914,0,0)"
       inkscape:export-xdpi="130"
       inkscape:export-ydpi="130" />
    <rect
       style="fill:#2e5c70;fill-opacity:1;stroke-width:0.25599033"
       id="rect815-6"
       width="96.794357"
       height="96.71019"
       x="0"
       y="169.00002"
       rx="48.397179"
       ry="48.355095"
       inkscape:export-xdpi="130"
       inkscape:export-ydpi="130" />
    <rect
       style="fill:#e0edf0;fill-opacity:1;stroke-width:0.17919326"
       id="rect815-5-4"
       width="67.756058"
       height="67.697136"
       x="14.519154"
       y="183.50655"
       rx="33.878029"
       ry="33.848564"
       inkscape:export-xdpi="130"
       inkscape:export-ydpi="130" />
    <path
       style="fill:#1a3237;fill-opacity:1;stroke-width:0.25599033"
       d="m 47.913033,193.17775 c -3.753686,0 -6.77519,3.01938 -6.77519,6.7698 v 10.15421 H 30.974305 c -3.753686,0 -6.775692,3.01938 -6.775692,6.7698 v 0.96703 c 0,3.75043 3.022006,6.76981 6.775692,6.76981 h 10.163538 v 10.1547 c 0,3.75042 3.021504,6.7698 6.77519,6.7698 h 0.967883 c 3.753686,0 6.775696,-3.01938 6.775696,-6.7698 v -10.1547 h 10.163535 c 3.753686,-10e-6 6.775691,-3.01938 6.775691,-6.76981 v -0.96703 c 0,-3.75042 -3.022005,-6.7698 -6.775691,-6.7698 H 55.656612 v -10.15421 c 0,-3.75042 -3.02201,-6.7698 -6.775696,-6.7698 z"
       id="rect860"
       inkscape:connector-curvature="0" />
  </g>
</svg>
