<?xml version="1.0" encoding="UTF-8" standalone="no"?>
<!-- Created with Inkscape (http://www.inkscape.org/) -->

<svg
   xmlns:dc="http://purl.org/dc/elements/1.1/"
   xmlns:cc="http://creativecommons.org/ns#"
   xmlns:rdf="http://www.w3.org/1999/02/22-rdf-syntax-ns#"
   xmlns:svg="http://www.w3.org/2000/svg"
   xmlns="http://www.w3.org/2000/svg"
   xmlns:sodipodi="http://sodipodi.sourceforge.net/DTD/sodipodi-0.dtd"
   xmlns:inkscape="http://www.inkscape.org/namespaces/inkscape"
   width="128mm"
   height="128mm"
   viewBox="0 0 128 128"
   version="1.1"
   id="svg878"
   inkscape:version="0.92.2 (5c3e80d, 2017-08-06)"
   sodipodi:docname="class-diagram-editor.svg">
  <defs
     id="defs872" />
  <sodipodi:namedview
     id="base"
     pagecolor="#ffffff"
     bordercolor="#666666"
     borderopacity="1.0"
     inkscape:pageopacity="0.0"
     inkscape:pageshadow="2"
     inkscape:zoom="0.98994949"
     inkscape:cx="21.944418"
     inkscape:cy="284.69018"
     inkscape:document-units="mm"
     inkscape:current-layer="layer1"
     showgrid="false"
     inkscape:window-width="1920"
     inkscape:window-height="1027"
     inkscape:window-x="1912"
     inkscape:window-y="-8"
     inkscape:window-maximized="1" />
  <metadata
     id="metadata875">
    <rdf:RDF>
      <cc:Work
         rdf:about="">
        <dc:format>image/svg+xml</dc:format>
        <dc:type
           rdf:resource="http://purl.org/dc/dcmitype/StillImage" />
        <dc:title></dc:title>
      </cc:Work>
    </rdf:RDF>
  </metadata>
  <g
     inkscape:label="Ebene 1"
     inkscape:groupmode="layer"
     id="layer1"
     transform="translate(0,-169)">
    <rect
       style="fill:#ffffff;fill-opacity:1;stroke-width:0.31985086"
       id="rect817"
       width="108.79991"
       height="108.79993"
       x="9.5999918"
       y="178.60014"
       rx="2.7199955"
       ry="2.7199957"
       inkscape:export-xdpi="130.048"
       inkscape:export-ydpi="130.048" />
    <rect
       style="fill:#c2431d;fill-opacity:1;stroke-width:0.33866632"
       id="rect858"
       width="25.599976"
       height="6.3999944"
       x="25.599977"
       y="226.6001"
       inkscape:export-xdpi="130"
       inkscape:export-ydpi="130" />
    <path
       inkscape:connector-curvature="0"
       style="fill:#91e658;fill-opacity:1;stroke-width:0.33866632"
       d="m 35.200132,249 v 9.60042 h -9.6004 v 6.39957 h 9.6004 v 9.60041 h 6.399598 v -9.60041 h 9.600403 v -6.39957 H 41.59973 V 249 Z"
       id="rect858-5"
       inkscape:export-xdpi="130"
       inkscape:export-ydpi="130" />
    <path
       inkscape:connector-curvature="0"
       style="fill:#d3d3d3;fill-opacity:1;stroke-width:0.31985086"
       d="m 46.225972,178.6004 50.219852,108.79987 h 19.233866 c 1.50687,0 2.71991,-1.21305 2.71991,-2.7199 V 181.32031 c 0,-1.50688 -1.21304,-2.71991 -2.71991,-2.71991 z"
       id="rect817-4" />
    <path
       inkscape:connector-curvature="0"
       style="fill:#000000;fill-opacity:1;stroke-width:0.33866632"
       d="M 12.799873,169 C 5.7086793,169 0,174.70867 0,181.79987 V 284.20014 C 0,291.29134 5.7086793,297 12.799873,297 H 115.20013 C 122.29133,297 128,291.29134 128,284.20014 V 181.79987 C 128,174.70867 122.29133,169 115.20013,169 Z m -0.479565,9.6004 H 115.67969 c 1.50687,0 2.71991,1.21303 2.71991,2.71991 v 22.87982 H 9.5997346 v -22.87982 c 0,-1.50688 1.2136954,-2.71991 2.7205734,-2.71991 z M 9.5997346,213.79987 H 118.3996 v 70.8805 c 0,1.50685 -1.21304,2.7199 -2.71991,2.7199 H 12.320308 c -1.506878,0 -2.7205734,-1.21305 -2.7205734,-2.7199 z"
       id="rect815" />
  </g>
</svg>
