<?xml version="1.0" encoding="UTF-8" standalone="no"?>
<!-- Created with Inkscape (http://www.inkscape.org/) -->

<svg
   xmlns:dc="http://purl.org/dc/elements/1.1/"
   xmlns:cc="http://creativecommons.org/ns#"
   xmlns:rdf="http://www.w3.org/1999/02/22-rdf-syntax-ns#"
   xmlns:svg="http://www.w3.org/2000/svg"
   xmlns="http://www.w3.org/2000/svg"
   xmlns:sodipodi="http://sodipodi.sourceforge.net/DTD/sodipodi-0.dtd"
   xmlns:inkscape="http://www.inkscape.org/namespaces/inkscape"
   width="128mm"
   height="128mm"
   viewBox="0 0 128 128"
   version="1.1"
   id="svg844"
   inkscape:version="0.92.2 (5c3e80d, 2017-08-06)"
   sodipodi:docname="edit-select-none.svg">
  <defs
     id="defs838" />
  <sodipodi:namedview
     id="base"
     pagecolor="#ffffff"
     bordercolor="#666666"
     borderopacity="1.0"
     inkscape:pageopacity="0.0"
     inkscape:pageshadow="2"
     inkscape:zoom="0.35"
     inkscape:cx="-224.28571"
     inkscape:cy="560"
     inkscape:document-units="mm"
     inkscape:current-layer="layer1"
     showgrid="false"
     inkscape:window-width="1920"
     inkscape:window-height="1027"
     inkscape:window-x="1912"
     inkscape:window-y="-8"
     inkscape:window-maximized="1" />
  <metadata
     id="metadata841">
    <rdf:RDF>
      <cc:Work
         rdf:about="">
        <dc:format>image/svg+xml</dc:format>
        <dc:type
           rdf:resource="http://purl.org/dc/dcmitype/StillImage" />
        <dc:title></dc:title>
      </cc:Work>
    </rdf:RDF>
  </metadata>
  <g
     inkscape:label="Ebene 1"
     inkscape:groupmode="layer"
     id="layer1"
     transform="translate(0,-169)">
    <path
       inkscape:connector-curvature="0"
       style="fill:#b52c2c;fill-opacity:1;stroke-width:0.33866662"
       d="m 0,168.99998 v 12.80025 19.19986 H 12.800252 V 181.80023 H 32.000113 V 168.99998 H 12.800252 Z"
       id="rect817" />
    <rect
       style="fill:#b52c2c;fill-opacity:1;stroke-width:0.33866662"
       id="rect817-2"
       width="12.8"
       height="31.999994"
       x="2.2174072e-007"
       y="216.99998"
       inkscape:export-xdpi="20"
       inkscape:export-ydpi="20" />
    <path
       inkscape:connector-curvature="0"
       style="fill:#b52c2c;fill-opacity:1;stroke-width:0.33866662"
       d="m 0,264.9998 v 19.20038 12.79974 H 12.800252 32.000113 V 284.20018 H 12.800252 V 264.9998 Z"
       id="rect817-3" />
    <path
       inkscape:connector-curvature="0"
       style="fill:#b52c2c;fill-opacity:1;stroke-width:0.33866662"
       d="m 95.999824,168.99998 v 12.80025 H 115.2002 v 19.19986 h 12.79974 V 181.80023 168.99998 H 115.2002 Z"
       id="rect817-6" />
    <rect
       style="fill:#b52c2c;fill-opacity:1;stroke-width:0.33866662"
       id="rect817-2-7"
       width="12.8"
       height="31.999994"
       x="115.2"
       y="216.99995"
       inkscape:export-xdpi="20"
       inkscape:export-ydpi="20" />
    <path
       inkscape:connector-curvature="0"
       style="fill:#b52c2c;fill-opacity:1;stroke-width:0.33866662"
       d="m 115.2002,264.9998 v 19.20038 H 95.999824 v 12.79974 H 115.2002 127.99994 V 284.20018 264.9998 Z"
       id="rect817-3-6" />
    <rect
       style="fill:#b52c2c;fill-opacity:1;stroke-width:0.33866662"
       id="rect817-0-4"
       width="12.799998"
       height="32.000004"
       x="168.99998"
       y="-80"
       transform="rotate(90)"
       inkscape:export-xdpi="20"
       inkscape:export-ydpi="20" />
    <rect
       style="fill:#b52c2c;fill-opacity:1;stroke-width:0.33866662"
       id="rect817-0-4-6"
       width="12.799998"
       height="32.000004"
       x="284.20001"
       y="-80"
       transform="rotate(90)"
       inkscape:export-xdpi="20"
       inkscape:export-ydpi="20" />
    <path
       style="fill:#000000;fill-opacity:1;stroke-width:0.15980905"
       d="m 105.67619,190.65369 c -2.25371,-2.25371 -7.81784,-0.31865 -12.475515,4.33902 L 63.639298,224.55409 34.077907,194.99271 c -4.657672,-4.65766 -10.221518,-6.59301 -12.475234,-4.3393 -2.253716,2.25372 -0.318379,7.81756 4.339296,12.47525 l 29.561389,29.56136 -29.561666,29.56166 c -4.65768,4.65768 -6.592727,10.2218 -4.339019,12.47552 2.253716,2.25371 7.817562,0.31839 12.475234,-4.3393 l 29.561666,-29.56166 29.56138,29.56139 c 4.65768,4.65766 10.221527,6.59301 12.475237,4.33929 2.25372,-2.25371 0.31837,-7.81756 -4.3393,-12.47524 L 71.775513,232.69032 101.33689,203.12893 c 4.65768,-4.65768 6.59302,-10.22152 4.3393,-12.47524 z"
       id="rect815-8"
       inkscape:export-xdpi="20"
       inkscape:export-ydpi="20"
       inkscape:connector-curvature="0" />
  </g>
</svg>
