<?xml version="1.0" encoding="UTF-8" standalone="no"?>
<!-- Created with Inkscape (http://www.inkscape.org/) -->

<svg
   xmlns:dc="http://purl.org/dc/elements/1.1/"
   xmlns:cc="http://creativecommons.org/ns#"
   xmlns:rdf="http://www.w3.org/1999/02/22-rdf-syntax-ns#"
   xmlns:svg="http://www.w3.org/2000/svg"
   xmlns="http://www.w3.org/2000/svg"
   xmlns:sodipodi="http://sodipodi.sourceforge.net/DTD/sodipodi-0.dtd"
   xmlns:inkscape="http://www.inkscape.org/namespaces/inkscape"
   width="128mm"
   height="128mm"
   viewBox="0 0 128 128"
   version="1.1"
   id="svg878"
   inkscape:version="0.92.2 (5c3e80d, 2017-08-06)"
   sodipodi:docname="new-comment.svg">
  <defs
     id="defs872" />
  <sodipodi:namedview
     id="base"
     pagecolor="#ffffff"
     bordercolor="#666666"
     borderopacity="1.0"
     inkscape:pageopacity="0.0"
     inkscape:pageshadow="2"
     inkscape:zoom="0.7"
     inkscape:cx="415.86816"
     inkscape:cy="107.6191"
     inkscape:document-units="mm"
     inkscape:current-layer="layer1"
     showgrid="false"
     inkscape:window-width="1920"
     inkscape:window-height="1027"
     inkscape:window-x="1912"
     inkscape:window-y="-8"
     inkscape:window-maximized="1" />
  <metadata
     id="metadata875">
    <rdf:RDF>
      <cc:Work
         rdf:about="">
        <dc:format>image/svg+xml</dc:format>
        <dc:type
           rdf:resource="http://purl.org/dc/dcmitype/StillImage" />
        <dc:title />
      </cc:Work>
    </rdf:RDF>
  </metadata>
  <g
     inkscape:label="Ebene 1"
     inkscape:groupmode="layer"
     id="layer1"
     transform="translate(0,-169)">
    <path
       style="fill:#ffffff;fill-opacity:1;stroke-width:1.20888519"
       d="M 46.564453 36.283203 C 40.869168 36.283203 36.283203 40.869168 36.283203 46.564453 L 36.283203 437.2168 C 36.283203 442.91208 40.869168 447.49609 46.564453 447.49609 L 437.21484 447.49609 C 442.91013 447.49609 447.49609 442.91208 447.49609 437.2168 L 447.49609 133.39062 L 350.39062 36.283203 L 46.564453 36.283203 z "
       transform="matrix(0.26458333,0,0,0.26458333,0,169)"
       id="rect817" />
    <path
       style="fill:#d3d3d3;fill-opacity:1;stroke-width:1.20888519"
       d="M 174.71289 36.285156 L 364.51953 447.49805 L 437.21484 447.49805 C 442.9101 447.49805 447.49414 442.91198 447.49414 437.2168 L 447.49414 122.23633 L 361.54297 36.285156 L 174.71289 36.285156 z "
       transform="matrix(0.26458333,0,0,0.26458333,0,169)"
       id="rect817-4" />
    <path
       style="fill:#000000;fill-opacity:1;stroke-width:1.27999866"
       d="M 48.376953 0 C 21.575591 0 -9.4739031e-015 21.575567 0 48.376953 L 0 435.40234 C 0 462.20373 21.575591 483.7793 48.376953 483.7793 L 435.40234 483.7793 C 462.20373 483.7793 483.7793 462.20373 483.7793 435.40234 L 483.7793 209.76367 L 483.7793 209.65234 L 483.7793 158.52148 L 325.25781 0 L 274.12695 0 L 48.376953 0 z M 46.564453 36.283203 L 274.01562 36.283203 L 274.01562 161.38672 C 274.01562 188.1881 295.59122 209.76367 322.39258 209.76367 L 447.49609 209.76367 L 447.49609 437.2168 C 447.49609 437.87505 447.42768 438.51545 447.31055 439.13867 C 447.301 439.18948 447.2974 439.24244 447.28711 439.29297 L 447.28711 439.29492 C 447.26966 439.38055 447.24221 439.46205 447.22266 439.54688 C 447.16562 439.79426 447.10765 440.04111 447.0332 440.28125 C 446.96986 440.48576 446.88995 440.68211 446.81445 440.88086 C 446.44403 441.85539 445.93468 442.75725 445.30273 443.5625 C 445.25168 443.62759 445.20688 443.69791 445.1543 443.76172 L 445.15234 443.76367 C 444.94338 444.01695 444.72223 444.26026 444.49023 444.49219 C 444.37981 444.60261 444.25989 444.70329 444.14453 444.80859 C 443.7746 445.14628 443.38747 445.465 442.9707 445.74609 C 442.69733 445.93048 442.41442 446.10187 442.12305 446.25977 C 441.7258 446.47503 441.3059 446.65411 440.87891 446.81641 C 440.68015 446.89191 440.48381 446.97181 440.2793 447.03516 C 440.03916 447.1096 439.79235 447.16758 439.54492 447.22461 C 439.12743 447.32083 438.70511 447.39939 438.26953 447.44336 C 437.9231 447.47833 437.5708 447.49805 437.21484 447.49805 L 46.564453 447.49805 C 46.225656 447.49805 45.892722 447.47703 45.5625 447.44531 C 45.545805 447.44371 45.52839 447.44504 45.511719 447.44336 L 45.509766 447.44336 C 45.163979 447.40845 44.822892 447.35712 44.488281 447.28906 L 44.486328 447.28906 C 44.400733 447.27164 44.31917 447.24414 44.234375 447.22461 C 43.986919 447.16758 43.740168 447.1096 43.5 447.03516 C 42.533105 446.73568 41.628709 446.29924 40.808594 445.74609 C 40.261723 445.37735 39.751787 444.95671 39.287109 444.49219 C 39.05518 444.26026 38.833903 444.01694 38.625 443.76367 L 38.625 443.76172 C 38.416157 443.50845 38.219287 443.24556 38.035156 442.97266 L 38.035156 442.9707 C 37.666659 442.42438 37.347192 441.8414 37.087891 441.22656 L 37.087891 441.22461 C 36.958419 440.91748 36.843841 440.60294 36.744141 440.28125 L 36.744141 440.2793 C 36.544704 439.63527 36.405844 438.96369 36.335938 438.27148 L 36.335938 438.26953 C 36.300965 437.9231 36.283203 437.57275 36.283203 437.2168 L 36.283203 169.32227 L 36.283203 133.03906 L 36.283203 46.564453 C 36.283203 46.209155 36.301093 45.857531 36.335938 45.511719 L 36.335938 45.509766 C 36.340541 45.464115 36.35027 45.420468 36.355469 45.375 C 36.421198 44.801262 36.537766 44.243655 36.693359 43.703125 C 36.712377 43.636991 36.723844 43.567525 36.744141 43.501953 L 36.744141 43.5 C 36.843785 43.17829 36.958472 42.863793 37.087891 42.556641 L 37.087891 42.554688 C 37.129915 42.455 37.183472 42.361708 37.228516 42.263672 C 37.461481 41.757028 37.726292 41.26635 38.035156 40.808594 C 38.403922 40.261851 38.822568 39.753604 39.287109 39.289062 C 39.75165 38.824526 40.261851 38.403922 40.808594 38.035156 C 41.355337 37.666391 41.939315 37.349261 42.554688 37.089844 C 43.170055 36.830427 43.8159 36.628678 44.486328 36.492188 L 44.488281 36.492188 C 45.158129 36.355941 45.853206 36.283203 46.564453 36.283203 z M 310.29883 36.283203 L 310.41016 36.283203 L 447.49609 173.36914 L 447.49609 173.48242 L 320.58008 173.48242 C 320.24128 173.48242 319.90835 173.45955 319.57812 173.42969 C 319.56156 173.42768 319.54409 173.42947 319.52734 173.42773 L 319.52539 173.42773 C 319.1796 173.39372 318.83852 173.34147 318.50391 173.27344 L 318.50195 173.27344 C 318.41638 173.25454 318.33477 173.22864 318.25 173.20898 C 318.00255 173.15191 317.7558 173.09399 317.51562 173.01953 C 316.54879 172.72019 315.64433 172.2836 314.82422 171.73047 C 314.27735 171.36159 313.76741 170.94107 313.30273 170.47656 C 313.07078 170.2445 312.84953 170.00135 312.64062 169.74805 L 312.64062 169.74609 C 312.43183 169.49287 312.23491 169.22995 312.05078 168.95703 L 312.05078 168.95508 C 311.68228 168.40879 311.36281 167.82579 311.10352 167.21094 L 311.10352 167.20898 C 310.97403 166.90171 310.85947 166.5873 310.75977 166.26562 L 310.75977 166.26367 C 310.56032 165.61964 310.42146 164.94808 310.35156 164.25586 L 310.35156 164.25391 C 310.31679 163.90732 310.29883 163.55713 310.29883 163.20117 L 310.29883 36.283203 z "
       transform="matrix(0.26458333,0,0,0.26458333,0,169)"
       id="rect815" />
  </g>
</svg>
