<?xml version="1.0" encoding="UTF-8" standalone="no"?>
<!-- Created with Inkscape (http://www.inkscape.org/) -->

<svg
   xmlns:dc="http://purl.org/dc/elements/1.1/"
   xmlns:cc="http://creativecommons.org/ns#"
   xmlns:rdf="http://www.w3.org/1999/02/22-rdf-syntax-ns#"
   xmlns:svg="http://www.w3.org/2000/svg"
   xmlns="http://www.w3.org/2000/svg"
   xmlns:sodipodi="http://sodipodi.sourceforge.net/DTD/sodipodi-0.dtd"
   xmlns:inkscape="http://www.inkscape.org/namespaces/inkscape"
   width="128mm"
   height="128mm"
   viewBox="0 0 128 128"
   version="1.1"
   id="svg8"
   inkscape:version="0.92.2 (5c3e80d, 2017-08-06)"
   sodipodi:docname="view-preview.svg">
  <defs
     id="defs2" />
  <sodipodi:namedview
     id="base"
     pagecolor="#ffffff"
     bordercolor="#666666"
     borderopacity="1.0"
     inkscape:pageopacity="0.0"
     inkscape:pageshadow="2"
     inkscape:zoom="1"
     inkscape:cx="77.97588"
     inkscape:cy="141.20848"
     inkscape:document-units="mm"
     inkscape:current-layer="layer1"
     showgrid="false"
     inkscape:window-width="1920"
     inkscape:window-height="1027"
     inkscape:window-x="1912"
     inkscape:window-y="-8"
     inkscape:window-maximized="1" />
  <metadata
     id="metadata5">
    <rdf:RDF>
      <cc:Work
         rdf:about="">
        <dc:format>image/svg+xml</dc:format>
        <dc:type
           rdf:resource="http://purl.org/dc/dcmitype/StillImage" />
        <dc:title></dc:title>
      </cc:Work>
    </rdf:RDF>
  </metadata>
  <g
     inkscape:label="Ebene 1"
     inkscape:groupmode="layer"
     id="layer1"
     transform="translate(0,-169)">
    <path
       style="fill:#7f7f7f;fill-opacity:1;stroke-width:0.40422699"
       d="M 84.41819,208.15334 59.282725,260.86244 33.688421,232.65821 13.912153,278.67376 H 115.2833 Z"
       id="rect815"
       inkscape:connector-curvature="0"
       inkscape:export-xdpi="130"
       inkscape:export-ydpi="130" />
    <rect
       style="fill:#ffb052;fill-opacity:1;stroke-width:0.28222242"
       id="rect832"
       width="21.333349"
       height="21.333382"
       x="31.447639"
       y="199.24812"
       rx="10.666675"
       ry="10.666691"
       inkscape:export-xdpi="130"
       inkscape:export-ydpi="130" />
    <path
       style="fill:#454545;fill-opacity:1;stroke-width:0.25193059"
       d="M 21.33315,179.667 C 9.514474,179.667 0,189.18203 0,201.00073 v 64.0001 C 0,276.81954 9.514474,286.334 21.33315,286.334 h 85.3337 C 118.48553,286.334 128,276.81954 128,265.00083 v -64.0001 c 0,-11.8187 -9.51447,-21.33373 -21.33315,-21.33373 z m 2.133756,10.66659 h 81.066744 c 7.0912,0 12.79978,5.70913 12.79978,12.80035 v 59.73311 c 0,7.09122 -5.70858,12.80036 -12.79978,12.80036 H 23.466906 c -7.091206,0 -12.800331,-5.70914 -12.800331,-12.80036 v -59.73311 c 0,-7.09122 5.709125,-12.80035 12.800331,-12.80035 z"
       id="rect924"
       inkscape:export-xdpi="130"
       inkscape:export-ydpi="130"
       inkscape:connector-curvature="0" />
  </g>
</svg>
